<?xml version="1.0" encoding="utf-8"?>
<!-- Generator: Adobe Illustrator 23.0.5, SVG Export Plug-In . SVG Version: 6.00 Build 0)  -->
<svg version="1.1" xmlns="http://www.w3.org/2000/svg" xmlns:xlink="http://www.w3.org/1999/xlink" x="0px" y="0px"
	 viewBox="0 0 500 500" style="enable-background:new 0 0 500 500;" xml:space="preserve">
<g id="Background_Complete">
	<g>
		<rect x="416.78" y="398.49" style="fill:#EBEBEB;" width="33.12" height="0.25"/>
		<rect x="322.53" y="401.21" style="fill:#EBEBEB;" width="8.69" height="0.25"/>
		<rect x="396.59" y="389.21" style="fill:#EBEBEB;" width="19.19" height="0.25"/>
		<rect x="52.46" y="390.89" style="fill:#EBEBEB;" width="43.19" height="0.25"/>
		<rect x="104.56" y="390.89" style="fill:#EBEBEB;" width="6.33" height="0.25"/>
		<rect x="131.47" y="395.11" style="fill:#EBEBEB;" width="93.68" height="0.25"/>
		<path style="fill:#EBEBEB;" d="M237.01,337.8H43.92c-3.15,0-5.71-2.56-5.71-5.71V60.66c0-3.15,2.56-5.71,5.71-5.71h193.1
			c3.15,0,5.71,2.56,5.71,5.71v271.43C242.72,335.24,240.16,337.8,237.01,337.8z M43.92,55.2c-3.01,0-5.46,2.45-5.46,5.46v271.43
			c0,3.01,2.45,5.46,5.46,5.46h193.1c3.01,0,5.46-2.45,5.46-5.46V60.66c0-3.01-2.45-5.46-5.46-5.46H43.92z"/>
		<path style="fill:#EBEBEB;" d="M453.31,337.8h-193.1c-3.15,0-5.71-2.56-5.71-5.71V60.66c0-3.15,2.56-5.71,5.71-5.71h193.1
			c3.15,0,5.71,2.56,5.71,5.71v271.43C459.02,335.24,456.46,337.8,453.31,337.8z M260.21,55.2c-3.01,0-5.46,2.45-5.46,5.46v271.43
			c0,3.01,2.45,5.46,5.46,5.46h193.1c3.01,0,5.46-2.45,5.46-5.46V60.66c0-3.01-2.45-5.46-5.46-5.46H260.21z"/>
		<rect y="382.4" style="fill:#EBEBEB;" width="500" height="0.25"/>
	</g>
	<g>
		<g>
			<rect x="67.47" y="271.28" style="fill:#E6E6E6;" width="29.45" height="31.35"/>
			<rect x="59.92" y="271.28" style="fill:#F0F0F0;" width="7.54" height="31.35"/>
			<rect x="82.52" y="266.44" style="fill:#E6E6E6;" width="22.12" height="36.19"/>
			<rect x="76.13" y="266.44" style="fill:#F0F0F0;" width="6.4" height="36.19"/>
			<rect x="89.03" y="271.28" style="fill:#F0F0F0;" width="18.65" height="31.35"/>
			<rect x="84.77" y="271.28" style="fill:#F5F5F5;" width="4.26" height="31.35"/>
			
				<rect x="49.97" y="302.61" transform="matrix(-1 -1.224647e-16 1.224647e-16 -1 281.0222 614.293)" style="fill:#EBEBEB;" width="181.08" height="9.07"/>
			<rect x="104.3" y="276.58" style="fill:#E6E6E6;" width="24.47" height="26.05"/>
			<rect x="98.04" y="276.58" style="fill:#F5F5F5;" width="6.26" height="26.05"/>
			<rect x="116.8" y="272.56" style="fill:#E6E6E6;" width="18.38" height="30.06"/>
			<rect x="111.5" y="272.56" style="fill:#F0F0F0;" width="5.31" height="30.06"/>
			<rect x="123.23" y="276.58" style="fill:#F0F0F0;" width="17.85" height="26.05"/>
			<rect x="118.67" y="276.58" style="fill:#F5F5F5;" width="3.54" height="26.05"/>
		</g>
		<g>
			<rect x="370.39" y="92.33" style="fill:#E6E6E6;" width="22.12" height="36.19"/>
			<rect x="364.01" y="92.33" style="fill:#F0F0F0;" width="6.4" height="36.19"/>
			<rect x="381.91" y="97.17" style="fill:#F0F0F0;" width="18.65" height="31.35"/>
			<rect x="377.65" y="97.17" style="fill:#F5F5F5;" width="4.26" height="31.35"/>
			
				<rect x="265.85" y="128.5" transform="matrix(-1 -1.224647e-16 1.224647e-16 -1 712.7752 266.071)" style="fill:#EBEBEB;" width="181.08" height="9.07"/>
			<rect x="399.18" y="102.47" style="fill:#E6E6E6;" width="24.47" height="26.05"/>
			<rect x="392.91" y="102.47" style="fill:#F5F5F5;" width="6.26" height="26.05"/>
			<rect x="411.68" y="98.45" style="fill:#E6E6E6;" width="18.38" height="30.06"/>
			<rect x="406.37" y="98.45" style="fill:#F0F0F0;" width="5.31" height="30.06"/>
			<rect x="418.11" y="102.47" style="fill:#F0F0F0;" width="17.85" height="26.05"/>
			<rect x="413.55" y="102.47" style="fill:#F5F5F5;" width="3.54" height="26.05"/>
		</g>
		<g>
			<g>
				
					<rect x="351.97" y="171.57" transform="matrix(5.244391e-03 -1 1 5.244391e-03 174.5756 574.7794)" style="fill:#E0E0E0;" width="48.43" height="56.14"/>
				
					<rect x="348.27" y="166.37" transform="matrix(-1 -5.246153e-03 5.246153e-03 -1 751.7772 343.7661)" style="fill:#E6E6E6;" width="56.14" height="9.06"/>
				<polygon style="fill:#F5F5F5;" points="346.36,222.35 402.49,222.64 404.38,175.57 348.25,175.28 				"/>
				<polygon style="fill:#EBEBEB;" points="360.73,186.91 388.52,187.06 388.85,178.77 361.06,178.63 				"/>
				<polygon style="fill:#E0E0E0;" points="392.77,197.78 400.19,197.82 400.49,190.4 393.07,190.36 				"/>
				<polygon style="fill:#E0E0E0;" points="382.24,197.72 389.66,197.76 389.96,190.34 382.54,190.3 				"/>
				<g>
					<polygon style="fill:#E0E0E0;" points="392.37,207.79 399.79,207.83 400.09,200.41 392.66,200.37 					"/>
				</g>
				<g>
					<polygon style="fill:#EBEBEB;" points="391.96,217.8 399.39,217.84 399.68,210.42 392.26,210.38 					"/>
				</g>
				<polygon style="fill:#E0E0E0;" points="381.84,207.73 389.26,207.77 389.56,200.35 382.14,200.31 				"/>
				<polygon style="fill:#E0E0E0;" points="371.31,207.68 378.73,207.72 379.03,200.3 371.61,200.26 				"/>
				<polygon style="fill:#E0E0E0;" points="360.78,207.62 368.2,207.66 368.5,200.24 361.08,200.2 				"/>
				<polygon style="fill:#E0E0E0;" points="350.25,207.57 357.67,207.61 357.97,200.19 350.55,200.15 				"/>
				<polygon style="fill:#EBEBEB;" points="381.43,217.74 388.86,217.78 389.15,210.36 381.73,210.32 				"/>
				<polygon style="fill:#EBEBEB;" points="370.91,217.69 378.33,217.73 378.63,210.31 371.2,210.27 				"/>
				<polygon style="fill:#E0E0E0;" points="360.38,217.63 367.8,217.67 368.1,210.25 360.68,210.21 				"/>
				<polygon style="fill:none;" points="371.71,197.67 379.13,197.71 379.43,190.29 372.01,190.25 				"/>
				<polygon style="fill:#EBEBEB;" points="371.71,197.67 379.13,197.71 379.43,190.29 372.01,190.25 				"/>
				<polygon style="fill:none;" points="361.18,197.61 368.6,197.65 368.9,190.23 361.48,190.19 				"/>
				<polygon style="fill:#EBEBEB;" points="361.18,197.61 368.6,197.65 368.9,190.23 361.48,190.19 				"/>
				<polygon style="fill:none;" points="350.65,197.56 358.08,197.6 358.37,190.18 350.95,190.14 				"/>
				<polygon style="fill:#EBEBEB;" points="350.65,197.56 358.08,197.6 358.37,190.18 350.95,190.14 				"/>
				<polygon style="fill:#E0E0E0;" points="349.85,217.58 357.27,217.62 357.57,210.2 350.15,210.16 				"/>
			</g>
			<path style="fill:#E6E6E6;" d="M376.19,163.9c-1.79,0-3.24,1.45-3.24,3.24c0,1.79,1.45,3.24,3.24,3.24
				c1.79,0,3.24-1.45,3.24-3.24C379.43,165.35,377.98,163.9,376.19,163.9z M376.19,169.6c-1.36,0-2.46-1.1-2.46-2.46
				c0-1.36,1.1-2.46,2.46-2.46c1.36,0,2.46,1.1,2.46,2.46C378.65,168.5,377.55,169.6,376.19,169.6z"/>
		</g>
		<g>
			<g>
				<rect x="58.94" y="101.92" style="fill:#EBEBEB;" width="163.83" height="99.83"/>
				<g>
					<g>
						<rect x="222.79" y="101.88" style="fill:#E0E0E0;" width="1.2" height="99.83"/>
					</g>
					<rect x="63.9" y="106.26" style="fill:#E0E0E0;" width="0.99" height="89.83"/>
				</g>
			</g>
			<rect x="63.8" y="106.26" style="fill:#FFFFFF;" width="153.63" height="89.83"/>
			<rect x="155.14" y="136.2" style="fill:#F5F5F5;" width="12.66" height="18.18"/>
			<rect x="71.2" y="165.01" style="fill:#F5F5F5;" width="12.66" height="18.18"/>
			<rect x="69.97" y="127.08" style="fill:#F5F5F5;" width="12.66" height="12.66"/>
			<rect x="132.94" y="170.8" style="fill:#F5F5F5;" width="12.66" height="12.66"/>
			<g>
				<rect x="175.36" y="137.76" style="fill:#F5F5F5;" width="32.42" height="45.56"/>
				<g>
					<rect x="179.8" y="144.36" style="fill:#E0E0E0;" width="23.29" height="0.5"/>
				</g>
				<g>
					<rect x="191.19" y="144.85" style="fill:#E0E0E0;" width="0.5" height="33.74"/>
				</g>
				<g>
					<rect x="201.89" y="144.85" style="fill:#E0E0E0;" width="0.5" height="33.74"/>
				</g>
				<g>
					<rect x="181.69" y="144.85" style="fill:#E0E0E0;" width="0.5" height="33.74"/>
				</g>
				<g>
					<rect x="180.03" y="144.85" style="fill:#E0E0E0;" width="0.5" height="33.74"/>
				</g>
				<g>
					<rect x="180.28" y="146.63" style="fill:#E0E0E0;" width="21.62" height="0.5"/>
				</g>
			</g>
			<g>
				
					<rect x="125.46" y="121.16" transform="matrix(6.123234e-17 -1 1 6.123234e-17 1.4488 253.7554)" style="fill:#F5F5F5;" width="4.28" height="9.98"/>
				
					<rect x="127.89" y="152.9" transform="matrix(6.123234e-17 -1 1 6.123234e-17 -28.3334 287.4386)" style="fill:#F5F5F5;" width="3.33" height="9.98"/>
				<rect x="93.76" y="122.61" style="fill:#F0F0F0;" width="32.42" height="45.56"/>
				
					<rect x="125.65" y="160.26" transform="matrix(6.123234e-17 -1 1 6.123234e-17 -37.9375 292.5673)" style="fill:#F5F5F5;" width="3.33" height="9.98"/>
				
					<rect x="127.31" y="129.81" transform="matrix(6.123234e-17 -1 1 6.123234e-17 -5.8186 263.7751)" style="fill:#F5F5F5;" width="3.33" height="9.98"/>
				
					<rect x="125.13" y="138.07" transform="matrix(6.123234e-17 -1 1 6.123234e-17 -16.274 269.8544)" style="fill:#F5F5F5;" width="3.33" height="9.98"/>
				<rect x="97.58" y="128.21" style="fill:#E6E6E6;" width="22.1" height="3.92"/>
				<polygon style="fill:#E6E6E6;" points="120.04,144.97 97.94,144.97 97.58,143.18 119.68,143.18 				"/>
				<rect x="97.58" y="136.05" style="fill:#E6E6E6;" width="7.84" height="3.92"/>
			</g>
		</g>
	</g>
</g>
<g id="Background_Simple" style="display:none;">
	<g style="display:inline;">
		<path style="fill:#407BFF;" d="M151.73,232.07c-81.67-9.66-95.51-91.9-86.96-116.83c5.73-16.71,21.3-30.41,38.76-33.11
			c287.71-44.5,323,114.46,328.7,141.42c16.85,79.66-7.26,149.61-72.35,146.29c-56.29-2.87-81.8-55.37-95.03-70.49
			C234.95,265.17,196.84,237.4,151.73,232.07z"/>
		<path style="opacity:0.9;fill:#FFFFFF;" d="M151.73,232.07c-81.67-9.66-95.51-91.9-86.96-116.83
			c5.73-16.71,21.3-30.41,38.76-33.11c287.71-44.5,323,114.46,328.7,141.42c16.85,79.66-7.26,149.61-72.35,146.29
			c-56.29-2.87-81.8-55.37-95.03-70.49C234.95,265.17,196.84,237.4,151.73,232.07z"/>
	</g>
</g>
<g id="Shadow">
	<ellipse id="_x3C_Path_x3E__1_" style="opacity:0.66;fill:#F5F5F5;" cx="245.18" cy="412.39" rx="193.89" ry="11.32"/>
</g>
<g id="Folder">
	<g>
		<g>
			<g>
				<g>
					<polygon style="fill:#407BFF;" points="253.3,170.12 242.8,183.82 200,183.82 210.51,170.12 240.47,170.12 247.9,170.12 					
						"/>
				</g>
				<g style="opacity:0.4;">
					<polygon style="fill:#FFFFFF;" points="253.3,170.12 242.8,183.82 200,183.82 210.51,170.12 240.47,170.12 247.9,170.12 					
						"/>
				</g>
			</g>
			<g>
				<polygon style="fill:#407BFF;" points="200.15,183.82 242.94,183.82 233.5,157.89 190.71,157.89 				"/>
			</g>
			<g style="opacity:0.6;">
				<polygon style="fill:#FFFFFF;" points="200.15,183.82 242.94,183.82 233.5,157.89 190.71,157.89 				"/>
			</g>
		</g>
		<polygon style="fill:#407BFF;" points="216.32,158.78 227.74,158.78 224.45,155.65 217.33,155.65 		"/>
		<polygon style="opacity:0.6;fill:#FFFFFF;" points="216.32,158.78 227.74,158.78 224.45,155.65 217.33,155.65 		"/>
	</g>
</g>
<g id="Device_1_">
	<g>
		<g>
			<g>
				<g>
					<g>
						<path style="fill:#263238;" d="M344.22,271.54h-0.34c-0.41,0-0.7-0.34-0.63-0.75l2.99-18.9c0.07-0.41,0.45-0.75,0.87-0.75
							h0.34h45.95l-3.23,20.4H344.22z"/>
						<path style="opacity:0.5;fill:#FFFFFF;" d="M344.22,271.54h-0.34c-0.41,0-0.7-0.34-0.63-0.75l2.99-18.9
							c0.07-0.41,0.45-0.75,0.87-0.75h0.34h45.95l-3.23,20.4H344.22z"/>
						<g>
							<path style="fill:#263238;" d="M390.01,271.54L390.01,271.54c0.51,0,0.98-0.41,1.06-0.92l2.94-18.56
								c0.08-0.51-0.27-0.92-0.77-0.92l0,0c-0.51,0-0.98,0.41-1.06,0.92l-2.94,18.56C389.15,271.13,389.5,271.54,390.01,271.54z"/>
							<path style="opacity:0.2;fill:#FFFFFF;" d="M390.01,271.54L390.01,271.54c0.51,0,0.98-0.41,1.06-0.92l2.94-18.56
								c0.08-0.51-0.27-0.92-0.77-0.92l0,0c-0.51,0-0.98,0.41-1.06,0.92l-2.94,18.56C389.15,271.13,389.5,271.54,390.01,271.54z"/>
						</g>
						<path style="fill:#407BFF;" d="M326,296.85h59.48l-3.4-30.07h-55.41c-2.17,0-3.86,1.89-3.62,4.05L326,296.85z"/>
						<path style="opacity:0.2;fill:#FFFFFF;" d="M326.67,266.78h54.44v3.38h-58.07C323.17,268.3,324.73,266.78,326.67,266.78z"/>
						<g>
							<path style="fill:#407BFF;" d="M379.04,296.85h16.28v-27.03c0-1.68-1.36-3.04-3.04-3.04h-12.57c-2.17,0-3.86,1.89-3.62,4.05
								L379.04,296.85z"/>
							<path style="opacity:0.4;" d="M379.04,296.85h16.28v-27.03c0-1.68-1.36-3.04-3.04-3.04h-12.57c-2.17,0-3.86,1.89-3.62,4.05
								L379.04,296.85z"/>
						</g>
						<polygon style="fill:#263238;" points="329.76,295.8 328.68,286.29 373.37,286.29 374.45,295.8 						"/>
						<g>
							<path style="fill:#263238;" d="M311.02,295.8h45.29v-1.53h-45.29c-0.33,0-0.6,0.27-0.6,0.6v0.34
								C310.42,295.54,310.69,295.8,311.02,295.8z"/>
							<path style="opacity:0.1;fill:#FFFFFF;" d="M311.02,295.8h45.29v-1.53h-45.29c-0.33,0-0.6,0.27-0.6,0.6v0.34
								C310.42,295.54,310.69,295.8,311.02,295.8z"/>
						</g>
						<g>
							<path style="fill:#263238;" d="M329.59,294.27h-12.22c0-1.78,1.45-3.23,3.23-3.23h8.62L329.59,294.27z"/>
							<path style="opacity:0.3;fill:#FFFFFF;" d="M329.59,294.27h-12.22c0-1.78,1.45-3.23,3.23-3.23h8.62L329.59,294.27z"/>
						</g>
						<polygon style="opacity:0.1;" points="382.77,266.78 354.99,266.78 356.88,251.14 384.65,251.14 						"/>
						<g>
							<path style="fill:#263238;" d="M354.84,294.27h3.44c0-1.78,1.45-3.23,3.23-3.23h12.4l0.36,3.23l0.17,1.53h-19.61
								c-0.32,0-0.58-0.26-0.58-0.58v-0.37C354.26,294.53,354.52,294.27,354.84,294.27z"/>
							<path style="opacity:0.3;fill:#FFFFFF;" d="M354.84,294.27h3.44c0-1.78,1.45-3.23,3.23-3.23h12.4l0.36,3.23l0.17,1.53h-19.61
								c-0.32,0-0.58-0.26-0.58-0.58v-0.37C354.26,294.53,354.52,294.27,354.84,294.27z"/>
						</g>
						<g>
							<polygon style="fill:#407BFF;" points="352.47,266.78 380.24,266.78 383.58,245.65 355.81,245.65 							"/>
							<polygon style="opacity:0.9;fill:#FFFFFF;" points="352.47,266.78 380.24,266.78 383.58,245.65 355.81,245.65 							"/>
						</g>
						<g>
							<path style="fill:#407BFF;" d="M369.31,268.96h-39.67c0.56-1.27,1.83-2.18,3.33-2.18h39.67
								C371.14,266.78,369.87,267.69,369.31,268.96z"/>
							<path style="opacity:0.5;fill:#FFFFFF;" d="M369.31,268.96h-39.67c0.56-1.27,1.83-2.18,3.33-2.18h39.67
								C371.14,266.78,369.87,267.69,369.31,268.96z"/>
						</g>
					</g>
				</g>
			</g>
		</g>
		<g>
			<g>
				<g>
					<g>
						<path style="fill:#407BFF;" d="M307.81,406.19v-79.27h32.2v79.27c0,3.67-2.99,6.66-6.66,6.66h-18.88
							C310.8,412.85,307.81,409.86,307.81,406.19z"/>
					</g>
				</g>
				<g style="opacity:0.5;">
					<g>
						<path style="fill:#FFFFFF;" d="M307.81,326.91v79.28c0,2.66,1.57,4.97,3.84,6.03c0.85,0.4,1.81,0.63,2.82,0.63h18.88
							c3.68,0,6.66-2.99,6.66-6.66v-79.28H307.81z"/>
					</g>
				</g>
			</g>
			<g>
				<path style="fill:#407BFF;" d="M384.72,412.75L384.72,412.75c-4.24,0-7.69-3.44-7.69-7.68v-71.81h7.69V412.75z"/>
				<path style="opacity:0.8;fill:#FFFFFF;" d="M384.72,412.75L384.72,412.75c-4.24,0-7.69-3.44-7.69-7.68v-71.81h7.69V412.75z"/>
			</g>
			<g>
				<path style="fill:#407BFF;" d="M311.66,333.24v78.98c-2.27-1.06-3.84-3.37-3.84-6.03v-72.95H311.66z"/>
				<path style="opacity:0.8;fill:#FFFFFF;" d="M311.66,333.24v78.98c-2.27-1.06-3.84-3.37-3.84-6.03v-72.95H311.66z"/>
			</g>
			<g>
				<g>
					<g>
						<path style="fill:#407BFF;" d="M381.08,406.19v-79.27h32.2v79.27c0,3.67-2.99,6.66-6.66,6.66h-18.88
							C384.07,412.85,381.08,409.86,381.08,406.19z"/>
					</g>
				</g>
			</g>
			<g>
				<g>
					<g>
						
							<rect x="307.72" y="303.76" transform="matrix(-1 -1.224647e-16 1.224647e-16 -1 693.9353 637.0095)" style="fill:#407BFF;" width="78.49" height="29.48"/>
						
							<rect x="307.72" y="303.76" transform="matrix(-1 -1.224647e-16 1.224647e-16 -1 693.9353 637.0095)" style="opacity:0.8;fill:#FFFFFF;" width="78.49" height="29.48"/>
					</g>
					<g>
						
							<rect x="381.09" y="303.76" transform="matrix(-1 -1.224647e-16 1.224647e-16 -1 794.3586 637.0095)" style="fill:#407BFF;" width="32.17" height="29.48"/>
						<path style="opacity:0.7;fill:#FFFFFF;" d="M413.28,326.91v79.28c0,3.67-2.98,6.66-6.66,6.66h-18.88
							c-3.67,0-6.66-2.99-6.66-6.66v-79.28h0.01v-23.14h32.18v23.14H413.28z"/>
					</g>
				</g>
				<g>
					<g>
						
							<rect x="303.74" y="297.01" transform="matrix(-1 -1.224647e-16 1.224647e-16 -1 684.1401 602.6123)" style="fill:#407BFF;" width="76.66" height="8.6"/>
						
							<rect x="303.74" y="297.01" transform="matrix(-1 -1.224647e-16 1.224647e-16 -1 684.1401 602.6123)" style="opacity:0.9;fill:#FFFFFF;" width="76.66" height="8.6"/>
					</g>
					<g>
						
							<rect x="379.21" y="297.01" transform="matrix(-1 -1.224647e-16 1.224647e-16 -1 796.4607 602.6123)" style="fill:#407BFF;" width="38.04" height="8.6"/>
						
							<rect x="379.21" y="297.01" transform="matrix(-1 -1.224647e-16 1.224647e-16 -1 796.4607 602.6123)" style="opacity:0.8;fill:#FFFFFF;" width="38.04" height="8.6"/>
					</g>
				</g>
				
					<rect x="314.04" y="310.52" transform="matrix(-1 -1.224647e-16 1.224647e-16 -1 688.8315 637.993)" style="fill:#407BFF;" width="60.76" height="16.96"/>
				
					<rect x="314.04" y="310.52" transform="matrix(-1 -1.224647e-16 1.224647e-16 -1 688.8315 637.993)" style="opacity:0.6;fill:#FFFFFF;" width="60.76" height="16.96"/>
				<g>
					<path style="fill:#407BFF;" d="M340.3,319.29c-1.3,0-2.35-1.05-2.35-2.35s1.05-2.35,2.35-2.35h3.08c1.3,0,2.35,1.05,2.35,2.35
						s-1.05,2.35-2.35,2.35H340.3z"/>
					<path style="opacity:0.3;fill:#FFFFFF;" d="M340.3,319.29c-1.3,0-2.35-1.05-2.35-2.35s1.05-2.35,2.35-2.35h3.08
						c1.3,0,2.35,1.05,2.35,2.35s-1.05,2.35-2.35,2.35H340.3z"/>
					<path style="fill:#407BFF;" d="M337.96,316.94c0,1.3,1.05,2.35,2.35,2.35c1.3,0,2.35-1.05,2.35-2.35c0-1.3-1.05-2.35-2.35-2.35
						C339.01,314.6,337.96,315.65,337.96,316.94z"/>
					<path style="opacity:0.9;fill:#FFFFFF;" d="M337.96,316.94c0,1.3,1.05,2.35,2.35,2.35c1.3,0,2.35-1.05,2.35-2.35
						c0-1.3-1.05-2.35-2.35-2.35C339.01,314.6,337.96,315.65,337.96,316.94z"/>
				</g>
			</g>
		</g>
	</g>
</g>
<g id="Text_Files_1_">
	<g>
		<g>
			<g>
				<g>
					<path style="fill:#407BFF;" d="M307.69,204.08l-3.72,43.4c-0.05,0.56-0.54,1.01-1.1,1.01l-40.13,0.07
						c-0.56,0-0.97-0.45-0.93-1.01l4.84-56.45c0.05-0.56,0.54-1.01,1.1-1.01l27.04-0.05L307.69,204.08z"/>
				</g>
				<g style="opacity:0.6;">
					<path style="fill:#FFFFFF;" d="M307.69,204.08l-3.72,43.4c-0.05,0.56-0.54,1.01-1.1,1.01l-40.13,0.07
						c-0.56,0-0.97-0.45-0.93-1.01l4.84-56.45c0.05-0.56,0.54-1.01,1.1-1.01l27.04-0.05L307.69,204.08z"/>
				</g>
				<path style="opacity:0.2;" d="M299.5,215.45l-28.33,0.14c-0.44,0-0.83,0.36-0.86,0.8l-0.02,0.26c-0.04,0.44,0.29,0.8,0.73,0.79
					l28.33-0.14c0.44,0,0.83-0.36,0.86-0.8l0.02-0.26C300.27,215.8,299.94,215.45,299.5,215.45z"/>
				<path style="opacity:0.2;" d="M298.87,223.03l-28.33,0.14c-0.44,0-0.83,0.36-0.86,0.8l-0.02,0.26c-0.04,0.44,0.29,0.8,0.73,0.79
					l28.33-0.14c0.44,0,0.83-0.36,0.86-0.8l0.02-0.26C299.64,223.38,299.32,223.03,298.87,223.03z"/>
				<path style="opacity:0.2;" d="M298.25,230.61l-28.33,0.14c-0.44,0-0.83,0.36-0.86,0.8l-0.02,0.26c-0.04,0.44,0.29,0.8,0.73,0.79
					l28.33-0.14c0.44,0,0.83-0.36,0.86-0.8l0.02-0.26C299.02,230.96,298.69,230.61,298.25,230.61z"/>
				<path style="fill:#407BFF;" d="M294.82,190.01l-1.12,13.09c-0.05,0.56,0.37,1.01,0.93,1.01l13.05-0.02L294.82,190.01z"/>
				<path style="opacity:0.8;fill:#FFFFFF;" d="M294.82,190.01l-1.12,13.09c-0.05,0.56,0.37,1.01,0.93,1.01l13.05-0.02
					L294.82,190.01z"/>
			</g>
			<g>
				<polygon style="fill:#407BFF;" points="288.11,251.3 258.51,251.3 259.72,237.41 289.32,237.41 				"/>
				<g>
					<path style="fill:#FFFFFF;" d="M270.58,246.31l-0.79-1.36l-1.01,1.36h-1.41l1.79-2.22l-1.34-2.17h1.4l0.77,1.26l0.97-1.26h1.34
						l-1.71,2.12l1.43,2.27H270.58z"/>
					<path style="fill:#FFFFFF;" d="M272.69,241.93h1.24l-0.3,3.4h2.09l-0.09,0.98h-3.33L272.69,241.93z"/>
					<path style="fill:#FFFFFF;" d="M275.84,245.91l0.49-0.91c0.37,0.26,0.9,0.43,1.41,0.43c0.51,0,0.73-0.14,0.74-0.36
						c0.06-0.7-2.47-0.19-2.33-1.82c0.07-0.78,0.76-1.42,2.06-1.42c0.57,0,1.15,0.13,1.56,0.38l-0.46,0.92
						c-0.4-0.23-0.8-0.34-1.18-0.34c-0.52,0-0.72,0.18-0.74,0.39c-0.06,0.67,2.47,0.17,2.33,1.78c-0.07,0.76-0.76,1.42-2.06,1.42
						C276.92,246.4,276.23,246.2,275.84,245.91z"/>
				</g>
			</g>
		</g>
		<g>
			<g>
				<g>
					<path style="fill:#407BFF;" d="M324,118.82l-3.72,43.4c-0.05,0.56-0.54,1.01-1.1,1.01l-40.13,0.07c-0.56,0-0.97-0.45-0.93-1.01
						l4.84-56.45c0.05-0.56,0.54-1.01,1.1-1.01l27.04-0.05L324,118.82z"/>
				</g>
				<g style="opacity:0.6;">
					<path style="fill:#FFFFFF;" d="M324,118.82l-3.72,43.4c-0.05,0.56-0.54,1.01-1.1,1.01l-40.13,0.07c-0.56,0-0.97-0.45-0.93-1.01
						l4.84-56.45c0.05-0.56,0.54-1.01,1.1-1.01l27.04-0.05L324,118.82z"/>
				</g>
				<path style="opacity:0.2;" d="M315.8,130.2l-28.33,0.14c-0.44,0-0.83,0.36-0.86,0.8l-0.02,0.26c-0.04,0.44,0.29,0.8,0.73,0.79
					l28.33-0.14c0.44,0,0.83-0.36,0.86-0.8l0.02-0.26C316.57,130.55,316.25,130.19,315.8,130.2z"/>
				<path style="opacity:0.2;" d="M315.18,137.77l-28.33,0.14c-0.44,0-0.83,0.36-0.86,0.8l-0.02,0.26c-0.04,0.44,0.29,0.8,0.73,0.79
					l28.33-0.14c0.44,0,0.83-0.36,0.86-0.8l0.02-0.26C315.95,138.13,315.62,137.77,315.18,137.77z"/>
				<path style="opacity:0.2;" d="M314.55,145.35l-28.33,0.14c-0.44,0-0.83,0.36-0.86,0.8l-0.02,0.26c-0.04,0.44,0.29,0.8,0.73,0.79
					l28.33-0.14c0.44,0,0.83-0.36,0.86-0.8l0.02-0.26C315.32,145.71,314.99,145.35,314.55,145.35z"/>
				<path style="fill:#407BFF;" d="M311.12,104.75L310,117.84c-0.05,0.56,0.37,1.01,0.93,1.01l13.05-0.02L311.12,104.75z"/>
				<path style="opacity:0.8;fill:#FFFFFF;" d="M311.12,104.75L310,117.84c-0.05,0.56,0.37,1.01,0.93,1.01l13.05-0.02L311.12,104.75
					z"/>
			</g>
			<g>
				<polygon style="fill:#407BFF;" points="304.41,166.05 274.81,166.05 276.03,152.15 305.63,152.15 				"/>
				<g>
					<path style="fill:#FFFFFF;" d="M281.06,156.67h2.07c1.45,0,2.37,0.85,2.26,2.19c-0.12,1.35-1.19,2.19-2.64,2.19h-2.07
						L281.06,156.67z M282.78,160.06c0.74,0,1.28-0.44,1.35-1.2c0.07-0.76-0.4-1.2-1.14-1.2h-0.78l-0.21,2.4H282.78z"/>
					<path style="fill:#FFFFFF;" d="M285.81,158.86c0.11-1.32,1.23-2.28,2.63-2.28c1.4,0,2.35,0.96,2.24,2.28
						c-0.11,1.32-1.23,2.28-2.63,2.28C286.65,161.14,285.7,160.18,285.81,158.86z M289.43,158.86c0.07-0.76-0.41-1.25-1.07-1.25
						s-1.23,0.49-1.29,1.25c-0.07,0.76,0.41,1.25,1.07,1.25C288.8,160.11,289.37,159.62,289.43,158.86z"/>
					<path style="fill:#FFFFFF;" d="M291.12,158.86c0.12-1.33,1.22-2.28,2.61-2.28c0.81,0,1.43,0.29,1.81,0.83l-0.85,0.71
						c-0.25-0.33-0.57-0.51-0.99-0.51c-0.72,0-1.26,0.5-1.33,1.25c-0.07,0.75,0.39,1.25,1.11,1.25c0.42,0,0.77-0.18,1.08-0.51
						l0.73,0.71c-0.47,0.53-1.15,0.83-1.96,0.83C291.94,161.14,291,160.2,291.12,158.86z"/>
					<path style="fill:#FFFFFF;" d="M298.46,161.05l-0.79-1.36l-1.01,1.36h-1.41l1.79-2.22l-1.34-2.17h1.4l0.77,1.26l0.97-1.26h1.34
						l-1.71,2.12l1.43,2.27H298.46z"/>
				</g>
			</g>
		</g>
		<g>
			<g>
				<g>
					<path style="fill:#407BFF;" d="M251.21,76.77l-3.72,43.4c-0.05,0.56-0.54,1.01-1.1,1.01l-40.13,0.07
						c-0.56,0-0.97-0.45-0.93-1.01l4.84-56.45c0.05-0.56,0.54-1.01,1.1-1.01l27.04-0.05L251.21,76.77z"/>
				</g>
				<g style="opacity:0.6;">
					<path style="fill:#FFFFFF;" d="M251.21,76.77l-3.72,43.4c-0.05,0.56-0.54,1.01-1.1,1.01l-40.13,0.07
						c-0.56,0-0.97-0.45-0.93-1.01l4.84-56.45c0.05-0.56,0.54-1.01,1.1-1.01l27.04-0.05L251.21,76.77z"/>
				</g>
				<path style="opacity:0.2;" d="M243.01,88.14l-28.33,0.14c-0.44,0-0.83,0.36-0.86,0.8l-0.02,0.26c-0.04,0.44,0.29,0.8,0.73,0.79
					l28.33-0.14c0.44,0,0.83-0.36,0.86-0.8l0.02-0.26C243.78,88.49,243.46,88.14,243.01,88.14z"/>
				<path style="opacity:0.2;" d="M242.39,95.72l-28.33,0.14c-0.44,0-0.83,0.36-0.86,0.8l-0.02,0.26c-0.04,0.44,0.29,0.8,0.73,0.79
					l28.33-0.14c0.44,0,0.83-0.36,0.86-0.8l0.02-0.26C243.16,96.07,242.83,95.72,242.39,95.72z"/>
				<path style="opacity:0.2;" d="M241.76,103.3l-28.33,0.14c-0.44,0-0.83,0.36-0.86,0.8l-0.02,0.26c-0.04,0.44,0.29,0.8,0.73,0.79
					l28.33-0.14c0.44,0,0.83-0.36,0.86-0.8l0.02-0.26C242.53,103.65,242.2,103.29,241.76,103.3z"/>
				<path style="fill:#407BFF;" d="M238.33,62.7l-1.12,13.09c-0.05,0.56,0.37,1.01,0.93,1.01l13.05-0.02L238.33,62.7z"/>
				<path style="opacity:0.8;fill:#FFFFFF;" d="M238.33,62.7l-1.12,13.09c-0.05,0.56,0.37,1.01,0.93,1.01l13.05-0.02L238.33,62.7z"
					/>
			</g>
			<g>
				<polygon style="fill:#407BFF;" points="231.62,123.13 202.02,123.13 203.24,109.23 232.84,109.23 				"/>
				<g>
					<path style="fill:#FFFFFF;" d="M209.99,113.75h2.07c1.45,0,2.37,0.85,2.26,2.19c-0.12,1.35-1.19,2.19-2.64,2.19h-2.07
						L209.99,113.75z M211.71,117.14c0.74,0,1.28-0.44,1.35-1.2c0.07-0.76-0.4-1.2-1.14-1.2h-0.78l-0.21,2.4H211.71z"/>
					<path style="fill:#FFFFFF;" d="M214.75,115.94c0.11-1.32,1.23-2.28,2.63-2.28c1.4,0,2.35,0.96,2.24,2.28
						c-0.11,1.31-1.23,2.28-2.63,2.28C215.58,118.22,214.63,117.26,214.75,115.94z M218.36,115.94c0.07-0.76-0.41-1.25-1.07-1.25
						c-0.66,0-1.23,0.49-1.29,1.25c-0.07,0.76,0.41,1.25,1.07,1.25C217.74,117.19,218.3,116.7,218.36,115.94z"/>
					<path style="fill:#FFFFFF;" d="M220.05,115.94c0.12-1.33,1.22-2.28,2.61-2.28c0.81,0,1.43,0.29,1.81,0.83l-0.85,0.71
						c-0.25-0.33-0.57-0.51-0.99-0.51c-0.72,0-1.26,0.5-1.33,1.25c-0.07,0.75,0.39,1.25,1.11,1.25c0.42,0,0.77-0.18,1.08-0.51
						l0.73,0.71c-0.47,0.53-1.15,0.83-1.96,0.83C220.87,118.22,219.93,117.28,220.05,115.94z"/>
				</g>
			</g>
		</g>
		<g>
			<g>
				<g>
					<path style="fill:#407BFF;" d="M168.96,110.79l-3.72,43.4c-0.05,0.56-0.54,1.01-1.1,1.01l-40.13,0.07
						c-0.56,0-0.97-0.45-0.93-1.01l4.84-56.45c0.05-0.56,0.54-1.01,1.1-1.01l27.04-0.05L168.96,110.79z"/>
				</g>
				<g style="opacity:0.6;">
					<path style="fill:#FFFFFF;" d="M168.96,110.79l-3.72,43.4c-0.05,0.56-0.54,1.01-1.1,1.01l-40.13,0.07
						c-0.56,0-0.97-0.45-0.93-1.01l4.84-56.45c0.05-0.56,0.54-1.01,1.1-1.01l27.04-0.05L168.96,110.79z"/>
				</g>
				<path style="opacity:0.2;" d="M160.92,123.88l-28.33,0.14c-0.44,0-0.83,0.36-0.86,0.8l-0.02,0.26c-0.04,0.44,0.29,0.8,0.73,0.79
					l28.33-0.14c0.44,0,0.83-0.36,0.86-0.8l0.02-0.26C161.68,124.23,161.36,123.87,160.92,123.88z"/>
				<path style="opacity:0.2;" d="M160.29,131.45l-28.33,0.14c-0.44,0-0.83,0.36-0.86,0.8l-0.02,0.26c-0.04,0.44,0.29,0.8,0.73,0.79
					l28.33-0.14c0.44,0,0.83-0.36,0.86-0.8l0.02-0.26C161.06,131.81,160.73,131.45,160.29,131.45z"/>
				<path style="opacity:0.2;" d="M159.66,139.03l-28.33,0.14c-0.44,0-0.83,0.36-0.86,0.8l-0.02,0.26c-0.04,0.44,0.29,0.8,0.73,0.79
					l28.33-0.14c0.44,0,0.83-0.36,0.86-0.8l0.02-0.26C160.43,139.39,160.1,139.03,159.66,139.03z"/>
				<path style="fill:#407BFF;" d="M156.09,96.73l-1.12,13.09c-0.05,0.56,0.37,1.01,0.93,1.01l13.05-0.02L156.09,96.73z"/>
				<path style="opacity:0.8;fill:#FFFFFF;" d="M156.09,96.73l-1.12,13.09c-0.05,0.56,0.37,1.01,0.93,1.01l13.05-0.02L156.09,96.73z
					"/>
			</g>
			<g>
				<polygon style="fill:#407BFF;" points="149.24,157.75 119.64,157.75 120.85,143.86 150.45,143.86 				"/>
				<g>
					<path style="fill:#FFFFFF;" d="M130.18,149.36h-1.35l0.09-0.98h3.92l-0.09,0.98h-1.34l-0.3,3.4h-1.24L130.18,149.36z"/>
					<path style="fill:#FFFFFF;" d="M135.5,152.76l-0.79-1.36l-1.01,1.36h-1.41l1.79-2.22l-1.34-2.17h1.4l0.77,1.26l0.97-1.26h1.34
						l-1.71,2.12l1.43,2.27H135.5z"/>
					<path style="fill:#FFFFFF;" d="M138.4,149.36h-1.35l0.09-0.98h3.92l-0.09,0.98h-1.34l-0.3,3.4h-1.24L138.4,149.36z"/>
				</g>
			</g>
		</g>
		<g>
			<g>
				<g>
					<path style="fill:#407BFF;" d="M136.91,199.39l-3.72,43.4c-0.05,0.56-0.54,1.01-1.1,1.01l-40.13,0.07
						c-0.56,0-0.97-0.45-0.93-1.01l4.84-56.45c0.05-0.56,0.54-1.01,1.1-1.01l27.04-0.05L136.91,199.39z"/>
				</g>
				<g style="opacity:0.6;">
					<path style="fill:#FFFFFF;" d="M136.91,199.39l-3.72,43.4c-0.05,0.56-0.54,1.01-1.1,1.01l-40.13,0.07
						c-0.56,0-0.97-0.45-0.93-1.01l4.84-56.45c0.05-0.56,0.54-1.01,1.1-1.01l27.04-0.05L136.91,199.39z"/>
				</g>
				<path style="opacity:0.2;" d="M128.86,212.47l-28.33,0.14c-0.44,0-0.83,0.36-0.86,0.8l-0.02,0.26c-0.04,0.44,0.29,0.8,0.73,0.79
					l28.33-0.14c0.44,0,0.83-0.36,0.86-0.8l0.02-0.26C129.63,212.82,129.3,212.47,128.86,212.47z"/>
				<path style="opacity:0.2;" d="M128.24,220.05l-28.33,0.14c-0.44,0-0.83,0.36-0.86,0.8l-0.02,0.26c-0.04,0.44,0.29,0.8,0.73,0.79
					l28.33-0.14c0.44,0,0.83-0.36,0.86-0.8l0.02-0.26C129,220.4,128.68,220.05,128.24,220.05z"/>
				<path style="opacity:0.2;" d="M127.61,227.63l-28.33,0.14c-0.44,0-0.83,0.36-0.86,0.8l-0.02,0.26c-0.04,0.44,0.29,0.8,0.73,0.79
					l28.33-0.14c0.44,0,0.83-0.36,0.86-0.8l0.02-0.26C128.38,227.98,128.05,227.63,127.61,227.63z"/>
				<path style="fill:#407BFF;" d="M124.04,185.32l-1.12,13.09c-0.05,0.56,0.37,1.01,0.93,1.01l13.05-0.02L124.04,185.32z"/>
				<path style="opacity:0.8;fill:#FFFFFF;" d="M124.04,185.32l-1.12,13.09c-0.05,0.56,0.37,1.01,0.93,1.01l13.05-0.02
					L124.04,185.32z"/>
			</g>
			<g>
				<polygon style="fill:#407BFF;" points="117.18,246.35 87.58,246.35 88.8,232.45 118.4,232.45 				"/>
				<g>
					<path style="fill:#FFFFFF;" d="M100.54,238.55c-0.09,0.98-0.87,1.59-2.05,1.59h-0.88l-0.11,1.21h-1.02l0.38-4.39h1.9
						C99.94,236.96,100.62,237.56,100.54,238.55z M99.51,238.55c0.04-0.48-0.25-0.76-0.87-0.76h-0.83l-0.13,1.52h0.83
						C99.13,239.31,99.47,239.03,99.51,238.55z"/>
					<path style="fill:#FFFFFF;" d="M105.07,238.55c-0.09,0.98-0.87,1.59-2.05,1.59h-0.88l-0.11,1.21h-1.02l0.38-4.39h1.9
						C104.47,236.96,105.15,237.56,105.07,238.55z M104.04,238.55c0.04-0.48-0.25-0.76-0.87-0.76h-0.83l-0.13,1.52h0.83
						C103.66,239.31,104,239.03,104.04,238.55z"/>
					<path style="fill:#FFFFFF;" d="M106.65,237.78h-1.4l0.07-0.83h3.83l-0.07,0.83h-1.41l-0.31,3.56h-1.02L106.65,237.78z"/>
				</g>
			</g>
		</g>
	</g>
</g>
<g id="Character_1_">
	<g>
		<g>
			<g>
				<path style="fill:#263238;" d="M235.85,235.42L235.85,235.42c0.93,0,1.8-0.64,1.95-1.44l5.38-29.1c0.15-0.8-0.49-1.44-1.42-1.44
					l0,0c-0.93,0-1.8,0.64-1.95,1.44l-5.38,29.1C234.29,234.78,234.92,235.42,235.85,235.42z"/>
				<path style="opacity:0.5;fill:#FFFFFF;" d="M235.85,235.42L235.85,235.42c0.93,0,1.8-0.64,1.95-1.44l5.38-29.1
					c0.15-0.8-0.49-1.44-1.42-1.44l0,0c-0.93,0-1.8,0.64-1.95,1.44l-5.38,29.1C234.29,234.78,234.92,235.42,235.85,235.42z"/>
			</g>
			<g>
				<path style="fill:#263238;" d="M193.48,235.42h-0.62c-0.76,0-1.27-0.53-1.15-1.17l5.48-29.63c0.12-0.65,0.83-1.17,1.59-1.17
					h0.62h42.96l-5.91,31.98H193.48z"/>
				<path style="opacity:0.8;fill:#FFFFFF;" d="M193.48,235.42h-0.62c-0.76,0-1.27-0.53-1.15-1.17l5.48-29.63
					c0.12-0.65,0.83-1.17,1.59-1.17h0.62h42.96l-5.91,31.98H193.48z"/>
			</g>
			<path style="fill:#263238;" d="M167.5,238.74h43.97v-3.32h-47.29l0,0C164.19,237.25,165.67,238.74,167.5,238.74z"/>
			<path style="opacity:0.7;fill:#FFFFFF;" d="M167.5,238.74h43.97v-3.32h-47.29l0,0C164.19,237.25,165.67,238.74,167.5,238.74z"/>
			<path style="fill:#263238;" d="M206.53,238.74h26.4c1.83,0,3.32-1.49,3.32-3.32l0,0h-33.04l0,0
				C203.21,237.25,204.7,238.74,206.53,238.74z"/>
			<path style="opacity:0.5;fill:#FFFFFF;" d="M206.53,238.74h26.4c1.83,0,3.32-1.49,3.32-3.32l0,0h-33.04l0,0
				C203.21,237.25,204.7,238.74,206.53,238.74z"/>
			<path style="opacity:0.2;" d="M182.29,235.42c-0.02,0.57-0.56,1.03-1.24,1.03h-5.11c-0.67,0-1.22-0.46-1.24-1.03H182.29z"/>
			<polygon style="fill:#263238;" points="195.06,232.91 234.07,232.91 239.09,205.77 200.07,205.77 			"/>
			<g>
				<polygon style="fill:#FFFFFF;" points="227.03,232.91 202.75,232.91 206.77,212.24 231.05,212.24 				"/>
				<g>
					<g>
						<polygon style="fill:#263238;" points="226.14,231.78 204.04,231.78 207.64,213.24 229.74,213.24 						"/>
						<polygon style="opacity:0.9;fill:#FFFFFF;" points="226.14,231.78 204.04,231.78 207.64,213.24 229.74,213.24 						"/>
						<polygon style="fill:#FFFFFF;" points="222.75,231.78 207.47,231.78 210.57,215.83 225.85,215.83 						"/>
						<g>
							<polygon style="fill:#263238;" points="229.51,214.45 207.41,214.45 207.64,213.24 229.74,213.24 							"/>
							<polygon style="opacity:0.8;fill:#FFFFFF;" points="229.51,214.45 207.41,214.45 207.64,213.24 229.74,213.24 							"/>
						</g>
						<g>
							<polygon style="fill:#263238;" points="226.15,231.7 204.06,231.7 204.17,231.1 226.27,231.1 							"/>
							<polygon style="opacity:0.8;fill:#FFFFFF;" points="226.15,231.7 204.06,231.7 204.17,231.1 226.27,231.1 							"/>
						</g>
					</g>
				</g>
				<g>
					<g>
						<polygon style="fill:#263238;" points="223.56,218.3 215.57,218.3 215.67,217.8 223.66,217.8 						"/>
					</g>
					<g>
						<polygon style="fill:#263238;" points="223.01,221.14 211.82,221.14 211.92,220.64 223.11,220.64 						"/>
					</g>
					<g>
						<polygon style="fill:#263238;" points="222.46,223.98 211.27,223.98 211.36,223.48 222.56,223.48 						"/>
					</g>
					<g>
						<polygon style="fill:#263238;" points="221.91,226.81 210.72,226.81 210.81,226.31 222,226.31 						"/>
					</g>
					<g>
						<polygon style="fill:#263238;" points="218.95,229.65 210.16,229.65 210.26,229.15 219.05,229.15 						"/>
					</g>
				</g>
				<g>
					<path style="fill:#FFFFFF;" d="M213.22,219.1l-0.25,0.65h-0.33l1.25-3.24h0.52l-0.01,3.24h-0.36l0-0.65H213.22z M213.32,218.79
						h0.72l0-1.87L213.32,218.79z"/>
				</g>
			</g>
			<path style="fill:#263238;" d="M218.24,204.39c0,0.26,0.25,0.47,0.55,0.47s0.55-0.21,0.55-0.47c0-0.26-0.25-0.47-0.55-0.47
				S218.24,204.13,218.24,204.39z"/>
		</g>
		<path style="fill:#263238;" d="M188.76,188.89c0.42,0.09,0.65,0.66,0.5,1.26c-0.15,0.6-0.52,1.03-0.94,0.93
			c-0.42-0.09-0.62-0.66-0.5-1.27C187.91,189.21,188.34,188.81,188.76,188.89z"/>
		<path style="fill:#263238;" d="M190.16,189.01l-1.51-0.36C188.93,189.66,190.16,189.01,190.16,189.01z"/>
		<path style="fill:#A02724;" d="M187.26,194.85c0.71,0.33,1.54,0.33,2.25,0c-0.71-1.36-1.24-2.81-1.56-4.31L187.26,194.85z"/>
		<path style="fill:#263238;" d="M189.79,185.78c0.09-0.17,0.02-0.39-0.15-0.48c-1.01-0.63-2.26-0.73-3.35-0.28
			c-0.14,0.09-0.2,0.26-0.15,0.42c0.06,0.19,0.27,0.29,0.46,0.23c0.88-0.34,1.87-0.24,2.68,0.26c0.05,0.03,0.11,0.05,0.17,0.05
			C189.59,185.98,189.73,185.91,189.79,185.78z"/>
		<path style="fill:#B55B52;" d="M176.68,200.36c-1.32,3.37-1.93,7.08,2.99,9.06c0,0,4.26,5.31-5.01,3.88c-8.46-1.3-11-6.23-11-6.23
			c3.55-2.52,5.26-10.09,4.94-14.74L176.68,200.36z"/>
		<path style="fill:#B55B52;" d="M169.66,178.78c3.31-4.55,9.69-5.54,14.23-2.23c6.72,4.63,5.53,15.91,2.59,22.22
			c-3.26,7.02-12.76,7.1-17.3,0.09c-3.01-4.68-2.41-7.82-1.39-15.36C168.01,181.79,168.65,180.17,169.66,178.78z"/>
		<path style="fill:#263238;" d="M186.87,176.49c-1.44-0.07-2.37-1.43-3.77-1.78c-7.38-1.82-12.14,0.31-13.88,1.25
			c-2.49,1.35-4.33,2.35-6.14,4.53c-1.54,1.85-2.43,4.41-1.92,6.71c0.18,0.82-0.01,1.67-0.46,2.38c-0.27,0.43-0.53,0.87-0.72,1.21
			c-0.39,0.69-0.59,1.53-0.36,2.29c0.17,0.58,0.56,1.06,0.84,1.59c0.28,0.53,0.44,1.2,0.14,1.72c-1.26,0.44-2.25,2.08-2.16,3.42
			c0.04,0.69,0.31,1.35,0.42,2.03c0.11,0.68,0.01,1.47-0.54,1.9c2.14,1.12,10.85,2.03,13.25,0.74c0.51-0.28,1.11-0.4,1.66-0.2
			c0.78,0.29,1.33,0.93,2.01,1.39c1.23,0.84,2.88,1,4.24,0.41c0.81,0.21,1.74-0.3,2.22-0.98c-1.06-0.64-1.81-1.99-1.7-3.23
			c0.11-1.23,0.98-2.36,2.14-2.8c1.53-0.57,1.57-3.25,1.06-4.8c-0.18-0.55-0.47-1.06-0.57-1.63c-0.08-0.46,0.12-1.15,0.43-1.5
			c0.77-0.9,1.86-1.5,2.41-2.57c0.48-0.93,0.32-2.11-0.41-2.85c-0.96-0.96-1.08-3.04,1.33-2.2c0.9,0.31,2.08,0.78,1.58,2.33
			c-0.88,2.77,2.11,1.78-0.86,5.12c2-0.25,2.79-1.07,2.72-3.09c-0.02-0.64-0.81-1.08,0-2.03c0.87-1.02,0.66-2.29,0-3.05
			c-1-1.16-0.62-1.75-0.34-1.94c0.62-0.41,0.92-1.31,0.81-2.05c-0.11-0.74-0.62-1.37-1.26-1.75s-1.4-0.53-2.14-0.57L186.87,176.49z"
			/>
		<path style="fill:#B55B52;" d="M183.1,187.95c1.45,1.54,1.23,4.29,0.63,5.7c-0.66,1.57-2.29,1.77-3.28-0.24
			c-0.72-1.44-0.98-3.06-0.75-4.65C180.04,186.99,181.65,186.4,183.1,187.95z"/>
		<g>
			<g>
				<path style="fill:#B55B52;" d="M152.39,208.93l-0.95,1.35c-0.48,0.45-4.88,26.28-4.95,26.92c-0.03,0.21-0.02,1.16,0.01,1.41
					c0.05,0.3,0.11,0.6,0.19,0.89c0.22,0.66,0.56,1.28,1,1.81c0.62,0.7,1.41,1.22,2.29,1.53c0.67,0.26,1.37,0.4,2.09,0.43
					c0.89,0.03,19,0.18,23.09-2.45l-0.81-4.45c-3.81-0.26-17.84-1.7-17.84-1.7c-0.97,0.25-1.96,0.44-2.95,0.55
					c-0.29,0.05-0.59,0.04-0.88-0.01c-0.04,0,0.04-0.04,0.35,0.07c0.24,0.09,0.46,0.22,0.66,0.38c0.32,0.25,0.58,0.56,0.77,0.92
					c0.1,0.17,0.18,0.35,0.23,0.54c0.05,0.15,0.09,0.3,0.1,0.46c0.01,0.11,0,0.22-0.02,0.32c-0.01,0.11-0.01,0.13-0.01,0.2
					c-0.01,0.24-0.01,0.23-0.01,0.16l0.69-1.5c0.44-1.02,2.94-19.24,3.32-19.6l0.56-0.53l0.47-0.43
					C159.8,216.22,152.66,208.69,152.39,208.93z"/>
				<path style="fill:#B55B52;" d="M172.39,236.17l5.73-2.04c0.91-0.33,1.93-0.23,2.76,0.27l2.74,1.63
					c1.03,0.62,1.65,1.75,1.59,2.95l0,0c-0.07,1.6-1.29,2.9-2.88,3.09l-4.35,0.5l-4.91-2.16L172.39,236.17z"/>
			</g>
			<path style="fill:#407BFF;" d="M151.52,209.85c-3.03,3.03-4.24,16.1-4.24,16.1l13.87,2.24c2.07-3.85,4.26-13.28,2.45-19.15
				C162.89,206.83,156.11,205.24,151.52,209.85z"/>
			<path style="opacity:0.4;" d="M151.52,209.85c-3.03,3.03-4.24,16.1-4.24,16.1l13.87,2.24c2.07-3.85,4.26-13.28,2.45-19.15
				C162.89,206.83,156.11,205.24,151.52,209.85z"/>
		</g>
		<path style="fill:#407BFF;" d="M190.16,228.19c0.03,1.59-3.01,7.7-4.95,14.37c-1.73,5.95-2.98,14.77-4.09,18.21l-32.2-1.89
			c0,0,1.38-1.95,1.79-4.84c1.34-9.45,2.31-24.02,0.35-40.27c-0.02-0.13-0.03-0.26-0.04-0.39c-0.25-3.86,2.67-7.2,6.54-7.46
			c9.7-0.44,16.14,0,25.17,3.58C185.51,210.62,189.96,218.3,190.16,228.19z"/>
		<g>
			<g>
				<polygon style="fill:#B55B52;" points="117.83,377.63 124.84,381.22 114.14,395.3 107.13,391.72 				"/>
				<path style="fill:#263238;" d="M114.72,396.22c-0.04,2.61-1.04,4.2,1.81,9.62c0.63,1.21-1.98,3.05-4.06,0.58
					c-2.08-2.47-3.87-4.98-5.37-6.77c-2.45-2.91-3.52-3.91-5.5-6.19c-0.04-0.05-0.08-0.1-0.11-0.15c-0.35-0.56-0.18-1.3,0.38-1.64
					l6.03-3.46c0.27-0.16,0.61-0.1,0.81,0.15l5.56,6.62C114.57,395.31,114.73,395.76,114.72,396.22z"/>
				<polygon style="opacity:0.2;enable-background:new    ;" points="117.83,377.63 112.3,384.9 118.89,389.05 124.84,381.21 				
					"/>
				<g>
					<path style="fill:#407BFF;" d="M111.38,383.15l10.05,4.28c0,0,22.66-23.83,35.53-45.8c3.4-5.79,5.6-14.99,7-25.02
						c0-0.01,0-0.01,0-0.01c1.52-10.8,2.12-22.56,2.34-32.05c0.24-10.91-0.03-18.83-0.03-18.83s-7.84-3.71-15.52-6.83
						c-25.08,27.28,4.09,51.08-8.49,75.03C130.72,355.89,111.38,383.15,111.38,383.15z"/>
					<path style="opacity:0.4;" d="M111.38,383.15l10.05,4.28c0,0,22.66-23.83,35.53-45.8c3.4-5.79,5.6-14.99,7-25.02
						c0-0.01,0-0.01,0-0.01c1.52-10.8,2.12-22.56,2.34-32.05c0.24-10.91-0.03-18.83-0.03-18.83s-7.84-3.71-15.52-6.83
						c-25.08,27.28,4.09,51.08-8.49,75.03C130.72,355.89,111.38,383.15,111.38,383.15z"/>
				</g>
				<polygon style="fill:#407BFF;" points="125.41,384.22 111.91,379.69 110.33,383.11 122.23,388.52 				"/>
				<path style="opacity:0.2;enable-background:new    ;" d="M160.96,331.57c0.9-5.51,1.96-10.48,3-14.96c0-0.01,0-0.01,0-0.01
					c1.52-10.8,2.12-22.56,2.34-32.05c-0.01-0.01-0.02-0.02-0.03-0.03l-0.24-0.07c-1.1-0.59-2.39-0.15-3.89,1.59
					C151.19,291.2,158.15,317.45,160.96,331.57z"/>
				<g>
					<path style="fill:#407BFF;" d="M115.71,399.54c-0.51-0.64-0.96-1.32-1.34-2.04c-0.04-0.07-0.03-0.15,0.02-0.21
						c0.05-0.06,0.13-0.08,0.21-0.05c0.36,0.15,3.58,1.55,3.75,2.57c0.04,0.2-0.03,0.4-0.18,0.53c-0.24,0.24-0.58,0.35-0.91,0.3
						C116.64,400.45,116.09,400.06,115.71,399.54z M114.97,397.81c0.87,1.49,1.74,2.41,2.37,2.51c0.22,0.04,0.45-0.04,0.6-0.2
						c0.06-0.05,0.09-0.13,0.08-0.21c-0.12-0.56-1.77-1.49-3.06-2.09L114.97,397.81z"/>
					<path style="fill:#407BFF;" d="M114.38,397.55c-0.03-0.03-0.05-0.06-0.05-0.1c-0.01-0.06,0.03-0.12,0.08-0.16
						c0.12-0.07,2.76-1.81,3.87-0.5l0.07,0.13c0.28,0.42,0.18,0.69,0.05,0.84c-0.57,0.65-3.06,0.29-3.98-0.16L114.38,397.55z
						 M118.02,397.02c-0.71-0.85-2.4-0.01-3.09,0.37c1.04,0.35,2.87,0.52,3.21,0.09c0,0,0.1-0.13-0.08-0.4L118.02,397.02z"/>
				</g>
			</g>
			<polygon style="fill:#B55B52;" points="181.91,385.92 189.46,385.54 186.74,403.84 179.19,404.21 			"/>
			<polygon style="opacity:0.2;enable-background:new    ;" points="181.91,386.02 180.51,395.45 187.96,395.8 189.46,385.64 			"/>
			<g>
				<path style="fill:#407BFF;" d="M153.19,264.34c-6.19,35.96,34.21,47.27,32.18,73.23c-1.86,23.82-5.58,55.59-5.58,55.59
					l11.19,0.33c0,0,7.06-31.06,10.4-55.11c3.22-23.14-25.26-72.17-25.26-72.17S161.75,264.88,153.19,264.34z"/>
				<path style="opacity:0.4;" d="M153.19,264.34c-6.19,35.96,34.21,47.27,32.18,73.23c-1.86,23.82-5.58,55.59-5.58,55.59
					l11.19,0.33c0,0,7.06-31.06,10.4-55.11c3.22-23.14-25.26-72.17-25.26-72.17S161.75,264.88,153.19,264.34z"/>
			</g>
			<g>
				<g>
					<path style="fill:#407BFF;" d="M181.87,257.94l-1.29,4.89c-1.14,4.32-0.96,8.88,0.53,13.1l0,0l-23.82,7.78l-2.93-2.97
						c-6.5-6.59-8.2-16.54-4.26-24.92v0L181.87,257.94z"/>
					<path style="opacity:0.4;" d="M181.87,257.94l-1.29,4.89c-1.14,4.32-0.96,8.88,0.53,13.1l0,0l-23.82,7.78l-2.93-2.97
						c-6.5-6.59-8.2-16.54-4.26-24.92v0L181.87,257.94z"/>
				</g>
				<path style="fill:#263238;" d="M150.92,258.59l26.69,1.62c0.31,0.02,0.59,0.19,0.6,0.37l0.18,2.68
					c0.01,0.17-0.19,0.26-0.48,0.28l-27.82-1.69c-0.36-0.02-0.66-0.26-0.59-0.46l0.91-2.61
					C150.52,258.62,150.72,258.54,150.92,258.59z"/>
			</g>
			<polygon style="fill:#407BFF;" points="193.4,388.82 178.24,389.58 178.52,393.3 192.61,393.94 			"/>
		</g>
		<path style="opacity:0.2;enable-background:new    ;" d="M184.25,227.82c0.59,1.12,4.36-0.89,4.48,0.37
			c0.12,1.31-0.29,2.61-0.69,3.87c-0.26,0.79-3.76,4.82-4.52,5.16c-1.08,0.48-6.62,0.02-7.79-12.4c-0.11-1.17,1.15-7.11,3.31-6.54
			c0.94,0.25,2.1,3.61,2.55,4.48C182.47,224.45,183.36,226.13,184.25,227.82z"/>
		<g>
			<path style="fill:#B55B52;" d="M182.84,213.14l22.41,30.23c-1.96,2.32-6.3,3.82-8.41,1.63c-6.3-6.56-17.75-18.59-19.96-24.48
				C173.84,212.39,182.84,213.14,182.84,213.14z"/>
			<g>
				<path style="fill:#B55B52;" d="M199.49,235.99c3.49,1.35,7.79-0.8,8.82,3.34c0.95,3.81-3.35,5.49-7.91,7.01
					c-1.65,0.55-4.38-1.12-4.86-3.62C195.06,240.22,196.54,236.34,199.49,235.99z"/>
			</g>
			<path style="fill:#B55B52;" d="M206.36,236.97l5.68-2.18c0.91-0.35,1.92-0.27,2.76,0.2l2.78,1.56c1.05,0.59,1.69,1.71,1.66,2.91
				l0,0c-0.03,1.6-1.22,2.93-2.8,3.16l-3.27,0.46l-5.78-0.56L206.36,236.97z"/>
		</g>
		<path style="fill:#407BFF;" d="M188.32,213.54l5.48,9.2c0.84,6.97-11.89,7.05-11.89,7.05s-6.79-5.83-6.74-14.26
			c0.02-3.43,1.83-5,3.97-5.67C182.65,208.76,186.44,210.38,188.32,213.54z"/>
		<path style="opacity:0.4;" d="M188.32,213.54l5.48,9.2c0.84,6.97-11.89,7.05-11.89,7.05s-6.79-5.83-6.74-14.26
			c0.02-3.43,1.83-5,3.97-5.67C182.65,208.76,186.44,210.38,188.32,213.54z"/>
		<g>
			<path style="fill:#407BFF;" d="M190.4,403.28c-0.81-0.02-1.62-0.12-2.41-0.29c-0.08-0.01-0.14-0.08-0.15-0.16
				c-0.01-0.08,0.03-0.15,0.1-0.18c0.36-0.18,3.49-1.73,4.4-1.2c0.18,0.1,0.29,0.29,0.29,0.49c0.03,0.33-0.1,0.66-0.36,0.88
				C191.73,403.18,191.06,403.34,190.4,403.28z M188.6,402.73c1.7,0.29,2.96,0.23,3.45-0.16c0.17-0.15,0.26-0.37,0.23-0.59
				c0-0.08-0.04-0.15-0.11-0.19C191.66,401.47,189.89,402.13,188.6,402.73z"/>
			<path style="fill:#407BFF;" d="M188.03,402.99c-0.04,0-0.07-0.02-0.11-0.04c-0.05-0.04-0.08-0.1-0.07-0.17
				c-0.01-0.14,0.39-3.27,2.11-3.27l0.15-0.01c0.49,0.05,0.63,0.3,0.67,0.5c0.13,0.87-1.74,2.52-2.68,2.94L188.03,402.99z
				 M189.97,399.89c-1.11-0.01-1.54,1.81-1.71,2.59c0.96-0.57,2.24-1.86,2.15-2.38c0,0-0.01-0.17-0.34-0.2L189.97,399.89z"/>
			<path style="fill:#263238;" d="M189.11,402.67c2.07,1.62,4.47,3.29,10.52,4.31c1.35,0.23,1.25,3.43-1.98,3.58
				s-8.06,0.14-10.4,0.25c-3.79,0.18-5.24,0.43-8.25,0.62c-0.06,0-0.13,0-0.19,0c-0.66-0.06-1.14-0.65-1.07-1.3l0.84-6.89
				c0.04-0.31,0.29-0.54,0.6-0.56l8.64-0.41C188.28,402.24,188.74,402.38,189.11,402.67z"/>
		</g>
	</g>
</g>
</svg>
